<?xml version="1.0" encoding="UTF-8" standalone="no"?>
<!-- Created with Inkscape (http://www.inkscape.org/) -->

<svg
   version="1.1"
   id="svg2"
   xml:space="preserve"
   width="3465.3333"
   height="2310.6667"
   viewBox="0 0 3465.3333 2310.6667"
   sodipodi:docname="SL-100420-36140-05.eps"
   xmlns:inkscape="http://www.inkscape.org/namespaces/inkscape"
   xmlns:sodipodi="http://sodipodi.sourceforge.net/DTD/sodipodi-0.dtd"
   xmlns="http://www.w3.org/2000/svg"
   xmlns:svg="http://www.w3.org/2000/svg"><defs
     id="defs6" /><sodipodi:namedview
     id="namedview4"
     pagecolor="#ffffff"
     bordercolor="#666666"
     borderopacity="1.0"
     inkscape:pageshadow="2"
     inkscape:pageopacity="0.0"
     inkscape:pagecheckerboard="0" /><g
     id="g8"
     inkscape:groupmode="layer"
     inkscape:label="ink_ext_XXXXXX"
     transform="matrix(1.3333333,0,0,-1.3333333,0,2310.6667)"><g
       id="g10"
       transform="scale(0.1)"><path
         d="M 25980.8,9.5 H 0 V 17330 H 25980.8 V 9.5"
         style="fill:#ffff;fill-opacity:1;fill-rule:nonzero;stroke:none"
         id="path12" /><path
         d="m 8773.09,9868.76 c -130.83,-52.88 -115.14,-187.97 -192.39,-345.16 -113.33,-230.6 -26.32,-361.27 92.11,-350.83 118.44,10.44 164.55,165.65 281.88,206.91 0.37,0.12 0.73,0.25 1.09,0.38 0.36,0.14 0.72,0.28 1.09,0.42 115.62,45.84 252.23,-41.07 348.47,28.76 96.24,69.82 76.18,225.5 -160.62,325.21 -161.42,67.96 -238.21,180.22 -371.63,134.31"
         style="fill:#f2cfbb;fill-opacity:1;fill-rule:nonzero;stroke:none"
         id="path14" /><path
         d="m 8417.59,9847.49 c 110.64,-73.15 162.11,-190.28 114.94,-261.61 -47.16,-71.33 -175.09,-69.84 -285.73,3.31 -110.65,73.15 -162.11,190.28 -114.94,261.61 47.15,71.33 175.08,69.85 285.73,-3.31"
         style="fill:#f2cfbb;fill-opacity:1;fill-rule:nonzero;stroke:none"
         id="path16" /><path
         d="m 9055.35,10085.9 c -35.52,-127.78 2.48,-249.94 84.86,-272.84 82.4,-22.9 177.98,62.14 213.5,189.94 35.52,127.8 -2.48,250 -84.86,272.9 -82.39,22.9 -177.97,-62.2 -213.5,-190"
         style="fill:#f2cfbb;fill-opacity:1;fill-rule:nonzero;stroke:none"
         id="path18" /><path
         d="m 8607.73,10206.7 c 71.21,-120.4 65.99,-255.24 -11.64,-301.13 -77.61,-45.9 -198.26,14.51 -269.45,134.93 -71.2,120.4 -65.99,255.2 11.63,301.1 77.63,45.9 198.27,-14.5 269.46,-134.9"
         style="fill:#f2cfbb;fill-opacity:1;fill-rule:nonzero;stroke:none"
         id="path20" /><path
         d="m 8676.2,10232.3 c 25.26,-137.6 117.63,-235.93 206.33,-219.6 88.69,16.2 140.13,141 114.87,278.6 -25.25,137.5 -117.62,235.9 -206.33,219.6 -88.69,-16.3 -140.12,-141 -114.87,-278.6"
         style="fill:#f2cfbb;fill-opacity:1;fill-rule:nonzero;stroke:none"
         id="path22" /><path
         d="m 24081.3,15709.8 c 93.6,105.6 19.5,219.6 18.6,394.7 -1.2,256.9 -137.2,335.2 -238.6,273.1 -101.5,-62 -73.6,-221.5 -160.3,-310.7 -0.3,-0.3 -0.6,-0.6 -0.8,-0.9 -0.3,-0.2 -0.6,-0.5 -0.8,-0.8 -83.1,-92.5 -244.1,-75.6 -299.2,-180.9 -55.1,-105.4 32.1,-235.9 288.6,-219.7 174.8,11 293.5,-55.3 392.5,45.2"
         style="fill:#f2cfbb;fill-opacity:1;fill-rule:nonzero;stroke:none"
         id="path24" /><path
         d="m 24390.2,15887.1 c -131.7,16.3 -229.9,98.2 -219.4,183.1 10.5,84.9 125.7,140.5 257.3,124.2 131.7,-16.2 229.9,-98.2 219.4,-183 -10.5,-84.9 -125.7,-140.5 -257.3,-124.3"
         style="fill:#f2cfbb;fill-opacity:1;fill-rule:nonzero;stroke:none"
         id="path26" /><path
         d="m 23925.3,15389.7 c -25.1,130.2 -113.5,222.7 -197.5,206.5 -84,-16.2 -131.7,-134.9 -106.6,-265.1 25.1,-130.3 113.5,-222.7 197.5,-206.6 83.9,16.2 131.7,134.9 106.6,265.2"
         style="fill:#f2cfbb;fill-opacity:1;fill-rule:nonzero;stroke:none"
         id="path28" /><path
         d="m 24379.9,15480.8 c -117.4,76.1 -172.8,199.2 -123.7,274.8 49.1,75.7 184,75.3 301.4,-0.8 117.3,-76.1 172.7,-199.2 123.6,-274.8 -49.1,-75.7 -184,-75.3 -301.3,0.8"
         style="fill:#f2cfbb;fill-opacity:1;fill-rule:nonzero;stroke:none"
         id="path30" /><path
         d="m 24330,15427.4 c -83.9,112 -210.4,158.9 -282.6,104.8 -72.2,-54 -62.7,-188.6 21.2,-300.6 83.9,-111.9 210.3,-158.9 282.5,-104.8 72.2,54.1 62.7,188.7 -21.1,300.6"
         style="fill:#f2cfbb;fill-opacity:1;fill-rule:nonzero;stroke:none"
         id="path32" /><path
         d="m 24776,8532.27 c -139,24.02 -196.9,-99.05 -345.4,-191.92 -217.9,-136.24 -212.8,-293.12 -106.7,-346.68 106.2,-53.56 227.2,54.03 348.6,27.25 0.4,-0.09 0.8,-0.17 1.2,-0.26 0.4,-0.06 0.7,-0.12 1.1,-0.2 122.4,-21.99 192.7,-167.84 311.3,-159.25 118.6,8.61 183.6,151.49 34.9,361.05 -101.3,142.83 -107.4,278.7 -245,310.01"
         style="fill:#f2cfbb;fill-opacity:1;fill-rule:nonzero;stroke:none"
         id="path34" /><path
         d="m 24462.7,8701.58 c 55.5,-120.49 37.5,-247.16 -40.2,-282.91 -77.7,-35.76 -185.6,32.93 -241.1,153.42 -55.5,120.49 -37.5,247.16 40.2,282.91 77.7,35.76 185.6,-32.93 241.1,-153.42"
         style="fill:#f2cfbb;fill-opacity:1;fill-rule:nonzero;stroke:none"
         id="path36" /><path
         d="m 25130.3,8568.03 c -97.5,-89.88 -129.6,-213.72 -71.7,-276.61 58,-62.89 184,-41 281.6,48.88 97.5,89.89 129.6,213.72 71.7,276.61 -58,62.88 -184,41 -281.6,-48.88"
         style="fill:#f2cfbb;fill-opacity:1;fill-rule:nonzero;stroke:none"
         id="path38" /><path
         d="m 24813.6,8906.61 c -2.9,-139.86 -78.4,-251.68 -168.6,-249.77 -90.2,1.91 -160.8,116.83 -157.9,256.69 3,139.85 78.5,251.68 168.6,249.76 90.2,-1.9 160.9,-116.83 157.9,-256.68"
         style="fill:#f2cfbb;fill-opacity:1;fill-rule:nonzero;stroke:none"
         id="path40" /><path
         d="m 24885.3,8892.28 c -51.1,-130.24 -24.4,-262.49 59.6,-295.41 83.9,-32.92 193.4,45.96 244.4,176.2 51.1,130.23 24.4,262.49 -59.5,295.41 -84,32.92 -193.4,-45.98 -244.5,-176.2"
         style="fill:#f2cfbb;fill-opacity:1;fill-rule:nonzero;stroke:none"
         id="path42" /><path
         d="m 18383.2,10961.7 c 77.2,-118.2 206.7,-76.6 375.9,-121.9 248.2,-66.5 359.5,44.1 326.3,158.3 -33.2,114.2 -194.4,129.3 -257.6,236.5 -0.2,0.3 -0.4,0.6 -0.6,1 -0.2,0.3 -0.4,0.6 -0.6,0.9 -67.3,104.6 -8.6,255.4 -95.7,336.3 -87.1,80.9 -236,31.1 -287.9,-220.5 -35.4,-171.6 -130.7,-268.6 -59.8,-390.6"
         style="fill:#f2cfbb;fill-opacity:1;fill-rule:nonzero;stroke:none"
         id="path44" /><path
         d="m 18472.9,10617 c 50.4,122.7 155.3,195.9 234.4,163.4 79.1,-32.4 102.5,-158.2 52.1,-280.9 -50.3,-122.7 -155.3,-195.9 -234.4,-163.5 -79.1,32.5 -102.4,158.3 -52.1,281"
         style="fill:#f2cfbb;fill-opacity:1;fill-rule:nonzero;stroke:none"
         id="path46" /><path
         d="m 18115.5,11196.5 c 132.2,-10.1 244.7,50.9 251.2,136.1 6.5,85.3 -95.4,162.6 -227.7,172.7 -132.2,10.1 -244.7,-50.9 -251.2,-136.1 -6.5,-85.3 95.4,-162.6 227.7,-172.7"
         style="fill:#f2cfbb;fill-opacity:1;fill-rule:nonzero;stroke:none"
         id="path48" /><path
         d="m 18083.7,10734 c 104.3,93.1 237.6,114.1 297.7,46.9 60,-67.3 24.1,-197.3 -80.2,-290.5 -104.3,-93.2 -237.6,-114.2 -297.7,-46.9 -60.1,67.2 -24.2,197.3 80.2,290.5"
         style="fill:#f2cfbb;fill-opacity:1;fill-rule:nonzero;stroke:none"
         id="path50" /><path
         d="m 18045.3,10796.2 c 130.1,51.4 208.7,161.1 175.5,244.9 -33.1,83.9 -165.5,110.2 -295.5,58.8 -130.1,-51.4 -208.7,-161.1 -175.6,-245 33.2,-83.8 165.5,-110.1 295.6,-58.7"
         style="fill:#f2cfbb;fill-opacity:1;fill-rule:nonzero;stroke:none"
         id="path52" /><path
         d="m 6927.87,12583.1 c 16.88,140.1 -108.99,191.6 -209.33,335.1 -147.2,210.7 -303.63,197.6 -351.69,88.8 -48.06,-108.7 65.58,-224.1 45.04,-346.7 -0.06,-0.4 -0.12,-0.8 -0.19,-1.2 -0.05,-0.3 -0.1,-0.7 -0.15,-1.1 -15.71,-123.4 -157.77,-201.1 -143.11,-319.1 14.66,-118 160.66,-175.6 362.34,-16.4 137.47,108.6 272.84,121.6 297.09,260.6"
         style="fill:#f2cfbb;fill-opacity:1;fill-rule:nonzero;stroke:none"
         id="path54" /><path
         d="m 7080.93,12904.7 c -117.49,-61.6 -244.91,-50.1 -284.6,25.7 -39.68,75.7 23.4,187 140.9,248.6 117.49,61.5 244.91,50 284.6,-25.7 39.67,-75.8 -23.4,-187.1 -140.9,-248.6"
         style="fill:#f2cfbb;fill-opacity:1;fill-rule:nonzero;stroke:none"
         id="path56" /><path
         d="m 6981.7,12231 c -94.76,92.9 -220.08,118.6 -279.91,57.5 -59.85,-61.1 -31.55,-185.8 63.21,-278.7 94.76,-92.8 220.07,-118.5 279.91,-57.4 59.85,61.1 31.54,185.8 -63.21,278.6"
         style="fill:#f2cfbb;fill-opacity:1;fill-rule:nonzero;stroke:none"
         id="path58" /><path
         d="m 7303.63,12564.7 c -139.81,-4.2 -255.36,65.5 -258.05,155.6 -2.71,90.1 108.44,166.6 248.27,170.8 139.82,4.2 255.36,-65.5 258.06,-155.6 2.71,-90.2 -108.45,-166.6 -248.28,-170.8"
         style="fill:#f2cfbb;fill-opacity:1;fill-rule:nonzero;stroke:none"
         id="path60" /><path
         d="m 7292.99,12492.4 c -132.68,44.3 -263.4,10.9 -291.98,-74.6 -28.58,-85.6 55.8,-190.8 188.47,-235.2 132.68,-44.3 263.4,-10.9 291.98,74.6 28.58,85.6 -55.81,190.8 -188.47,235.2"
         style="fill:#f2cfbb;fill-opacity:1;fill-rule:nonzero;stroke:none"
         id="path62" /><path
         d="m 3679.07,7970.83 c 111.23,-86.85 220.36,-5.69 395.12,6.03 256.37,17.2 326.01,157.88 257.72,255.22 -68.28,97.34 -225.73,59.65 -320.13,140.62 -0.31,0.25 -0.6,0.5 -0.88,0.75 -0.31,0.24 -0.62,0.49 -0.91,0.72 -97.52,77.21 -90.6,238.95 -199.2,287.38 -108.59,48.42 -233.37,-46.8 -201.28,-301.74 21.88,-173.77 -36.92,-296.4 69.56,-388.98"
         style="fill:#f2cfbb;fill-opacity:1;fill-rule:nonzero;stroke:none"
         id="path64" /><path
         d="m 3875.29,7673.62 c 8.01,132.4 83.7,235.55 169.06,230.38 85.36,-5.17 148.05,-116.69 140.03,-249.09 -8,-132.39 -83.69,-235.54 -169.05,-230.38 -85.35,5.17 -148.05,116.69 -140.04,249.09"
         style="fill:#f2cfbb;fill-opacity:1;fill-rule:nonzero;stroke:none"
         id="path66" /><path
         d="m 3349.86,8106.65 c 128.43,33.15 215.21,127.16 193.84,209.95 -21.39,82.79 -142.82,123.04 -271.26,89.88 -128.43,-33.16 -215.21,-127.16 -193.84,-209.96 21.38,-82.79 142.83,-123.03 271.26,-89.87"
         style="fill:#f2cfbb;fill-opacity:1;fill-rule:nonzero;stroke:none"
         id="path68" /><path
         d="m 3469.14,7658.62 c 68.66,121.88 188.01,184.8 266.58,140.53 78.57,-44.27 86.6,-178.94 17.94,-300.82 -68.66,-121.87 -188.02,-184.83 -266.58,-140.52 -78.56,44.26 -86.6,178.94 -17.94,300.81"
         style="fill:#f2cfbb;fill-opacity:1;fill-rule:nonzero;stroke:none"
         id="path70" /><path
         d="m 3412.73,7705.11 c 106.52,90.68 145.46,219.85 87.01,288.51 -58.45,68.67 -192.19,50.82 -298.7,-39.85 -106.52,-90.67 -145.46,-219.85 -87.01,-288.52 58.46,-68.67 192.19,-50.82 298.7,39.86"
         style="fill:#f2cfbb;fill-opacity:1;fill-rule:nonzero;stroke:none"
         id="path72" /><path
         d="m 16651.9,9166.91 c 39.6,135.42 -76.1,206.91 -151.4,364.99 -110.6,231.93 -267.1,244.73 -332.4,145.36 -65.2,-99.39 27.9,-231.81 -12.5,-349.45 -0.1,-0.36 -0.2,-0.73 -0.4,-1.09 -0.1,-0.37 -0.2,-0.73 -0.3,-1.11 -35.8,-119.12 -188.7,-172.39 -193.6,-291.19 -4.9,-118.8 129.6,-199.63 354.7,-75.71 153.5,84.46 289.1,75.07 335.9,208.2"
         style="fill:#f2cfbb;fill-opacity:1;fill-rule:nonzero;stroke:none"
         id="path74" /><path
         d="m 16855.7,9458.96 c -126,-41.41 -249.8,-9.13 -276.5,72.1 -26.7,81.24 53.8,180.67 179.8,222.09 126,41.41 249.8,9.14 276.5,-72.11 26.7,-81.23 -53.8,-180.66 -179.8,-222.08"
         style="fill:#f2cfbb;fill-opacity:1;fill-rule:nonzero;stroke:none"
         id="path76" /><path
         d="m 16647.1,8810.81 c -78.2,107.13 -197.6,153.1 -266.6,102.68 -69.1,-50.42 -61.7,-178.15 16.6,-285.28 78.2,-107.13 197.6,-153.09 266.6,-102.67 69.1,50.43 61.7,178.14 -16.6,285.27"
         style="fill:#f2cfbb;fill-opacity:1;fill-rule:nonzero;stroke:none"
         id="path78" /><path
         d="m 17019.5,9087.02 c -138.6,18.84 -241.1,106.53 -229,195.9 12.2,89.36 134.4,146.53 273,127.7 138.6,-18.84 241.1,-106.55 229,-195.91 -12.2,-89.36 -134.4,-146.53 -273,-127.69"
         style="fill:#f2cfbb;fill-opacity:1;fill-rule:nonzero;stroke:none"
         id="path80" /><path
         d="m 16997.1,9017.44 c -123.6,65.53 -258,54.05 -300.2,-25.61 -42.3,-79.67 23.7,-197.39 147.3,-262.91 123.5,-65.53 258,-54.07 300.2,25.61 42.3,79.67 -23.7,197.38 -147.3,262.91"
         style="fill:#f2cfbb;fill-opacity:1;fill-rule:nonzero;stroke:none"
         id="path82" /><path
         d="m 14153.2,8057.03 c -62.7,-126.41 38.7,-217 85.4,-385.82 68.4,-247.67 220.2,-287.6 301.8,-201.13 81.6,86.45 13,233.11 73.4,341.88 0.1,0.33 0.3,0.68 0.5,1.01 0.2,0.35 0.4,0.69 0.5,1.04 56,111.05 215.9,136.8 241.5,252.91 25.6,116.12 -92.8,219.2 -336.1,136.48 -165.8,-56.37 -297.7,-23.43 -367,-146.37"
         style="fill:#f2cfbb;fill-opacity:1;fill-rule:nonzero;stroke:none"
         id="path84" /><path
         d="m 13901.5,7805.05 c 131.3,18.78 247.6,-34.62 259.7,-119.27 12.1,-84.65 -84.5,-168.49 -215.8,-187.27 -131.4,-18.78 -247.6,34.61 -259.7,119.26 -12.1,84.65 84.5,168.5 215.8,187.28"
         style="fill:#f2cfbb;fill-opacity:1;fill-rule:nonzero;stroke:none"
         id="path86" /><path
         d="m 14220,8406.85 c 58.3,-119.14 167.9,-185.26 244.6,-147.66 76.9,37.59 91.8,164.65 33.5,283.79 -58.3,119.13 -167.8,185.24 -244.6,147.64 -76.8,-37.58 -91.8,-164.64 -33.5,-283.77"
         style="fill:#f2cfbb;fill-opacity:1;fill-rule:nonzero;stroke:none"
         id="path88" /><path
         d="m 13805.1,8199.88 c 133.2,-42.74 218.9,-147 191.3,-232.87 -27.6,-85.86 -157.9,-120.82 -291.1,-78.07 -133.2,42.74 -218.8,147 -191.2,232.87 27.5,85.87 157.8,120.83 291,78.07"
         style="fill:#f2cfbb;fill-opacity:1;fill-rule:nonzero;stroke:none"
         id="path90" /><path
         d="m 13839.3,8264.49 c 110.3,-86.1 244.6,-98.28 300.1,-27.2 55.5,71.07 11.2,198.48 -99.1,284.58 -110.2,86.1 -244.6,98.28 -300.1,27.2 -55.5,-71.07 -11.1,-198.48 99.1,-284.58"
         style="fill:#f2cfbb;fill-opacity:1;fill-rule:nonzero;stroke:none"
         id="path92" /><path
         d="m 18542.1,3559.5 c 51.2,131.5 -57.9,212.7 -119.3,376.7 -90.1,240.7 -244.9,267 -318.5,173.6 -73.6,-93.3 7.7,-233.3 -42.7,-347 -0.2,-0.4 -0.3,-0.7 -0.5,-1.1 -0.1,-0.3 -0.3,-0.7 -0.4,-1.1 -46,-115.5 -202.9,-155.4 -218.1,-273.3 -15.2,-117.9 111.9,-210.1 346.9,-106.1 160.1,70.8 294.5,49.7 352.6,178.3"
         style="fill:#f2cfbb;fill-opacity:1;fill-rule:nonzero;stroke:none"
         id="path94" /><path
         d="m 18770.4,3832.8 c -129.1,-30.3 -249.7,12.6 -269.2,95.8 -19.6,83.2 69.2,175.3 198.3,205.7 129.2,30.3 249.7,-12.5 269.3,-95.8 19.5,-83.2 -69.3,-175.3 -198.4,-205.7"
         style="fill:#f2cfbb;fill-opacity:1;fill-rule:nonzero;stroke:none"
         id="path96" /><path
         d="m 18506.5,3205.2 c -68.6,113.5 -183.6,169.6 -256.7,125.3 -73.2,-44.2 -76.9,-172.1 -8.2,-285.6 68.6,-113.5 183.6,-169.6 256.7,-125.4 73.2,44.3 76.9,172.2 8.2,285.7"
         style="fill:#f2cfbb;fill-opacity:1;fill-rule:nonzero;stroke:none"
         id="path98" /><path
         d="m 18901.4,3448.1 c -136.4,30.8 -231,127 -211.2,215 19.9,88 146.6,134.3 283,103.6 136.5,-30.8 231,-127.1 211.2,-215 -19.8,-88 -146.5,-134.4 -283,-103.6"
         style="fill:#f2cfbb;fill-opacity:1;fill-rule:nonzero;stroke:none"
         id="path100" /><path
         d="m 18873.1,3380.7 c -117.5,76 -252.4,76.2 -301.4,0.5 -48.9,-75.7 6.6,-198.7 124,-274.7 117.5,-76 252.4,-76.2 301.4,-0.5 48.9,75.8 -6.6,198.7 -124,274.7"
         style="fill:#f2cfbb;fill-opacity:1;fill-rule:nonzero;stroke:none"
         id="path102" /><path
         d="m 10719.6,7666.75 c 87.9,-110.43 213,-57.02 385.6,-86.45 253.3,-43.17 353.9,77.34 310.2,187.94 -43.6,110.61 -205.5,110.74 -278.4,211.53 -0.2,0.31 -0.4,0.62 -0.7,0.93 -0.2,0.31 -0.5,0.61 -0.7,0.91 -76.8,97.85 -32.2,253.51 -126.5,325.97 -94.3,72.45 -237.9,9.01 -266.2,-246.37 -19.4,-174.07 -105.2,-279.57 -23.3,-394.46"
         style="fill:#f2cfbb;fill-opacity:1;fill-rule:nonzero;stroke:none"
         id="path104" /><path
         d="m 10841,7331.91 c 38.7,126.87 136.4,209.48 218.2,184.52 81.8,-24.97 116.7,-148.05 77.9,-274.93 -38.7,-126.9 -136.4,-209.5 -218.1,-184.5 -81.8,25 -116.7,148 -78,274.91"
         style="fill:#f2cfbb;fill-opacity:1;fill-rule:nonzero;stroke:none"
         id="path106" /><path
         d="m 10431.3,7875.72 c 132.6,2.24 238.9,73.36 237.5,158.86 -1.5,85.5 -110.1,153 -242.8,150.76 -132.6,-2.23 -238.9,-73.36 -237.5,-158.86 1.4,-85.49 110.1,-152.99 242.8,-150.76"
         style="fill:#f2cfbb;fill-opacity:1;fill-rule:nonzero;stroke:none"
         id="path108" /><path
         d="m 10442.6,7412.23 c 95.2,102.46 225.9,135.75 292,74.35 66,-61.39 42.4,-194.18 -52.8,-296.68 -95.3,-102.5 -226,-135.7 -292.1,-74.4 -66,61.4 -42.4,194.3 52.9,296.73"
         style="fill:#f2cfbb;fill-opacity:1;fill-rule:nonzero;stroke:none"
         id="path110" /><path
         d="m 10398.6,7470.61 c 124.7,63.29 192.8,179.78 152,260.2 -40.8,80.42 -175,94.32 -299.8,31.04 -124.7,-63.3 -192.8,-179.79 -152,-260.22 40.8,-80.42 175,-94.31 299.8,-31.02"
         style="fill:#f2cfbb;fill-opacity:1;fill-rule:nonzero;stroke:none"
         id="path112" /><path
         d="m 15806.4,11827.5 c 42.3,134.6 -72,208.3 -144.2,367.9 -106,234 -262.2,249.9 -329.4,151.9 -67.2,-98.1 23.3,-232.4 -19.4,-349.2 -0.2,-0.3 -0.3,-0.7 -0.5,-1.1 -0.1,-0.3 -0.2,-0.7 -0.3,-1.1 -38.1,-118.3 -192,-168.6 -199.3,-287.3 -7.3,-118.7 125.7,-202.1 353.2,-82.7 155,81.5 290.5,69.4 339.9,201.6"
         style="fill:#f2cfbb;fill-opacity:1;fill-rule:nonzero;stroke:none"
         id="path114" /><path
         d="m 16015.9,12115.4 c -126.8,-38.9 -249.9,-4.2 -275,77.6 -25.1,81.7 57.3,179.6 184.1,218.5 126.8,38.9 250,4.2 275.1,-77.6 25.1,-81.7 -57.4,-179.5 -184.2,-218.5"
         style="fill:#f2cfbb;fill-opacity:1;fill-rule:nonzero;stroke:none"
         id="path116" /><path
         d="m 15794.6,11471.5 c -76.1,108.7 -194.5,157 -264.6,107.9 -70,-49 -65.1,-176.8 11,-285.5 76.1,-108.6 194.5,-157 264.6,-107.9 70,49.1 65.1,176.9 -11,285.5"
         style="fill:#f2cfbb;fill-opacity:1;fill-rule:nonzero;stroke:none"
         id="path118" /><path
         d="m 16172.4,11740.4 c -138.2,21.5 -239,111.2 -225.1,200.3 13.9,89.1 137.2,143.9 275.4,122.3 138.2,-21.6 239,-111.3 225.1,-200.4 -13.9,-89.1 -137.2,-143.8 -275.4,-122.2"
         style="fill:#f2cfbb;fill-opacity:1;fill-rule:nonzero;stroke:none"
         id="path120" /><path
         d="m 16148.6,11671.2 c -122.3,68 -256.9,59.2 -300.7,-19.7 -43.8,-78.8 19.8,-197.8 142.1,-265.7 122.2,-68 256.9,-59.2 300.7,19.7 43.8,78.8 -19.8,197.8 -142.1,265.7"
         style="fill:#f2cfbb;fill-opacity:1;fill-rule:nonzero;stroke:none"
         id="path122" /><path
         d="m 19797.2,8473.79 c 16.2,-140.18 150.6,-160.98 281.5,-277.25 192.2,-170.57 341.3,-121.46 362.7,-4.51 21.5,116.95 -115.9,202.68 -124.4,326.76 -0.1,0.38 -0.1,0.77 -0.1,1.15 -0.1,0.38 -0.1,0.76 -0.2,1.15 -13.4,123.65 106.7,232.23 65,343.58 -41.7,111.35 -197.1,133.42 -356.2,-68.35 -108.5,-137.53 -237.1,-181.69 -228.3,-322.53"
         style="fill:#f2cfbb;fill-opacity:1;fill-rule:nonzero;stroke:none"
         id="path124" /><path
         d="m 19723.1,8125.44 c 100,87.2 226.6,105.66 282.8,41.23 56.2,-64.43 20.8,-187.36 -79.2,-274.57 -99.9,-87.2 -226.5,-105.65 -282.7,-41.23 -56.3,64.43 -20.8,187.36 79.1,274.57"
         style="fill:#f2cfbb;fill-opacity:1;fill-rule:nonzero;stroke:none"
         id="path126" /><path
         d="m 19662.9,8803.65 c 113.8,-68.23 241.6,-64.09 285.6,9.24 44,73.33 -12.6,188.09 -126.3,256.32 -113.8,68.22 -241.6,64.09 -285.6,-9.25 -44,-73.33 12.6,-188.09 126.3,-256.31"
         style="fill:#f2cfbb;fill-opacity:1;fill-rule:nonzero;stroke:none"
         id="path128" /><path
         d="m 19427.4,8404.27 c 135,36.61 263.6,-4.27 287.2,-91.3 23.6,-87.04 -66.7,-187.28 -201.7,-223.88 -135,-36.62 -263.6,4.26 -287.2,91.3 -23.6,87.03 66.7,187.27 201.7,223.88"
         style="fill:#f2cfbb;fill-opacity:1;fill-rule:nonzero;stroke:none"
         id="path130" /><path
         d="m 19421,8477.07 c 139.3,-12.25 258.7,50.65 266.6,140.49 7.9,89.83 -98.7,172.58 -238,184.82 -139.4,12.26 -258.8,-50.64 -266.6,-140.47 -7.9,-89.83 98.6,-172.58 238,-184.84"
         style="fill:#f2cfbb;fill-opacity:1;fill-rule:nonzero;stroke:none"
         id="path132" /><path
         d="m 3260.19,3126.8 c 30.85,-137.6 166.69,-144.2 309.19,-246 209.05,-149.4 352.14,-84.9 361.14,33.7 9.01,118.5 -136.6,189.3 -158.19,311.8 -0.06,0.4 -0.12,0.8 -0.19,1.1 -0.08,0.4 -0.17,0.8 -0.26,1.2 -26.35,121.5 81.65,242.1 28.44,348.5 -53.2,106.3 -210.07,111.9 -347.05,-105.5 -93.36,-148.2 -216.63,-205.6 -193.08,-344.8"
         style="fill:#f2cfbb;fill-opacity:1;fill-rule:nonzero;stroke:none"
         id="path134" /><path
         d="m 3223.22,2772.6 c 90.22,97.3 214.16,129 276.86,70.8 62.68,-58.2 40.38,-184.1 -49.85,-281.4 -90.2,-97.2 -214.16,-128.9 -276.84,-70.7 -62.7,58.1 -40.37,184.1 49.83,281.3"
         style="fill:#f2cfbb;fill-opacity:1;fill-rule:nonzero;stroke:none"
         id="path136" /><path
         d="m 3091.94,3440.7 c 120.31,-55.8 247.02,-38.3 283.05,39.3 36.03,77.5 -32.3,185.7 -152.6,241.6 -120.3,55.9 -247.02,38.3 -283.04,-39.3 -36.02,-77.5 32.3,-185.7 152.59,-241.6"
         style="fill:#f2cfbb;fill-opacity:1;fill-rule:nonzero;stroke:none"
         id="path138" /><path
         d="m 2899.82,3018.8 c 130.4,50.6 262.57,23.5 295.2,-60.6 32.64,-84 -46.63,-193.2 -177.03,-243.8 -130.4,-50.7 -262.57,-23.6 -295.21,60.5 -32.62,84.1 46.63,193.3 177.04,243.9"
         style="fill:#f2cfbb;fill-opacity:1;fill-rule:nonzero;stroke:none"
         id="path140" /><path
         d="m 2885.73,3090.5 c 139.86,2.5 251.94,77.6 250.33,167.8 -1.6,90.1 -116.28,161.2 -256.14,158.7 -139.86,-2.5 -251.95,-77.6 -250.34,-167.7 1.6,-90.2 116.29,-161.3 256.15,-158.8"
         style="fill:#f2cfbb;fill-opacity:1;fill-rule:nonzero;stroke:none"
         id="path142" /><path
         d="m 15728.2,4446.2 c 6.2,141 -123.2,182.8 -234.1,318.3 -162.7,198.9 -317.7,174 -357.4,61.9 -39.7,-112.1 82.4,-218.4 71.2,-342.3 -0.1,-0.4 -0.1,-0.8 -0.1,-1.2 -0.1,-0.4 -0.1,-0.7 -0.1,-1.1 -6.3,-124.3 -142.1,-212.4 -118.5,-329 23.5,-116.5 173.5,-162.9 362.5,11.1 128.9,118.6 262.9,141.9 276.5,282.3"
         style="fill:#f2cfbb;fill-opacity:1;fill-rule:nonzero;stroke:none"
         id="path144" /><path
         d="m 15856.5,4778.4 c -112.5,-70.2 -240.5,-68.4 -285.8,4.1 -45.3,72.5 9.2,188.3 121.7,258.6 112.5,70.2 240.4,68.4 285.7,-4.1 45.3,-72.5 -9.1,-188.3 -121.6,-258.6"
         style="fill:#f2cfbb;fill-opacity:1;fill-rule:nonzero;stroke:none"
         id="path146" /><path
         d="m 15808.5,4099.3 c -101.5,85.3 -228.4,101.5 -283.4,36.1 -55.1,-65.5 -17.4,-187.8 84.1,-273.1 101.5,-85.4 228.5,-101.6 283.5,-36.1 55,65.4 17.4,187.7 -84.2,273.1"
         style="fill:#f2cfbb;fill-opacity:1;fill-rule:nonzero;stroke:none"
         id="path148" /><path
         d="m 16104.3,4456.3 c -139.1,-14.8 -259.6,46 -269.1,135.6 -9.5,89.7 95.5,174.4 234.6,189.2 139.1,14.7 259.6,-46 269.1,-135.7 9.5,-89.6 -95.5,-174.3 -234.6,-189.1"
         style="fill:#f2cfbb;fill-opacity:1;fill-rule:nonzero;stroke:none"
         id="path150" /><path
         d="m 16099.2,4383.4 c -135.7,34.2 -263.5,-9 -285.5,-96.5 -22.1,-87.4 70.1,-186 205.7,-220.2 135.7,-34.1 263.5,9.1 285.5,96.5 22,87.5 -70.1,186 -205.7,220.2"
         style="fill:#f2cfbb;fill-opacity:1;fill-rule:nonzero;stroke:none"
         id="path152" /><path
         d="m 24533.8,3261.7 c -87.5,110.7 -212.7,57.7 -385.3,87.7 -253.1,44 -354.1,-76.2 -310.8,-186.9 43.3,-110.8 205.2,-111.4 277.7,-212.5 0.3,-0.3 0.5,-0.6 0.7,-0.9 0.2,-0.3 0.5,-0.6 0.7,-0.9 76.5,-98.1 31.5,-253.6 125.5,-326.4 94,-72.8 237.8,-9.8 267,245.5 19.9,174 106.1,279.2 24.5,394.4"
         style="fill:#f2cfbb;fill-opacity:1;fill-rule:nonzero;stroke:none"
         id="path154" /><path
         d="m 24413.6,3596.9 c -39.2,-126.7 -137.1,-209 -218.8,-183.8 -81.7,25.2 -116.3,148.4 -77.1,275.2 39.1,126.7 137.1,209 218.8,183.8 81.7,-25.3 116.2,-148.4 77.1,-275.2"
         style="fill:#f2cfbb;fill-opacity:1;fill-rule:nonzero;stroke:none"
         id="path156" /><path
         d="m 24821.5,3051.8 c -132.6,-1.8 -239.2,-72.6 -238,-158.1 1.1,-85.5 109.6,-153.4 242.2,-151.6 132.7,1.9 239.2,72.6 238.1,158.1 -1.2,85.5 -109.6,153.4 -242.3,151.6"
         style="fill:#f2cfbb;fill-opacity:1;fill-rule:nonzero;stroke:none"
         id="path158" /><path
         d="m 24811.7,3515.3 c -95.5,-102.1 -226.4,-135 -292.3,-73.4 -65.8,61.6 -41.7,194.4 53.8,296.5 95.6,102.2 226.5,135 292.3,73.4 65.9,-61.6 41.8,-194.3 -53.8,-296.5"
         style="fill:#f2cfbb;fill-opacity:1;fill-rule:nonzero;stroke:none"
         id="path160" /><path
         d="m 24855.5,3456.8 c -124.9,-62.9 -193.4,-179.2 -152.8,-259.7 40.5,-80.6 174.7,-94.9 299.6,-32 125,62.9 193.4,179.1 152.9,259.7 -40.6,80.5 -174.7,94.9 -299.7,32"
         style="fill:#f2cfbb;fill-opacity:1;fill-rule:nonzero;stroke:none"
         id="path162" /><path
         d="m 23079.4,12084.7 c 8.7,-140.8 141.8,-168.8 266.5,-291.8 182.8,-180.5 334.3,-139.4 361.9,-23.7 27.6,115.6 -105,208.5 -107,332.9 0,0.3 0,0.7 0,1.1 0,0.4 0,0.8 0,1.2 -6.9,124.2 118.8,226.2 83,339.6 -35.7,113.4 -189.7,143.7 -359.3,-49.3 -115.6,-131.6 -246.4,-168.9 -245.1,-310"
         style="fill:#f2cfbb;fill-opacity:1;fill-rule:nonzero;stroke:none"
         id="path164" /><path
         d="m 22987,11740.7 c 104.4,81.8 231.8,93.6 284.6,26.2 52.7,-67.3 10.8,-188.2 -93.7,-270 -104.4,-81.7 -231.8,-93.5 -284.5,-26.1 -52.7,67.3 -10.8,188.2 93.6,269.9"
         style="fill:#f2cfbb;fill-opacity:1;fill-rule:nonzero;stroke:none"
         id="path166" /><path
         d="m 22962.8,12421.2 c 110,-74.2 237.9,-76.8 285.7,-5.9 47.8,70.9 -2.6,188.5 -112.5,262.6 -110,74.2 -237.9,76.9 -285.7,6 -47.8,-70.9 2.6,-188.5 112.5,-262.7"
         style="fill:#f2cfbb;fill-opacity:1;fill-rule:nonzero;stroke:none"
         id="path168" /><path
         d="m 22706.5,12034.9 c 136.8,29.4 263,-18.3 281.9,-106.4 19,-88.2 -76.5,-183.5 -213.3,-212.9 -136.7,-29.4 -263,18.2 -281.9,106.4 -19,88.2 76.5,183.5 213.3,212.9"
         style="fill:#f2cfbb;fill-opacity:1;fill-rule:nonzero;stroke:none"
         id="path170" /><path
         d="m 22703.9,12107.9 c 138.5,-19.6 261,36.9 273.7,126.2 12.6,89.3 -89.4,177.5 -227.9,197.2 -138.5,19.6 -261,-36.9 -273.7,-126.2 -12.6,-89.3 89.4,-177.6 227.9,-197.2"
         style="fill:#f2cfbb;fill-opacity:1;fill-rule:nonzero;stroke:none"
         id="path172" /><path
         d="m 10432.9,12036.5 c -88.4,109.9 -213.2,55.8 -386,84.2 -253.57,41.7 -353.45,-79.4 -309.18,-189.7 44.28,-110.4 206.19,-109.6 279.68,-209.9 0.2,-0.4 0.4,-0.7 0.6,-1 0.3,-0.3 0.5,-0.6 0.8,-0.9 77.3,-97.4 33.7,-253.3 128.4,-325.2 94.7,-71.9 237.9,-7.7 264.8,247.9 18.3,174.1 103.5,280.1 20.9,394.6"
         style="fill:#f2cfbb;fill-opacity:1;fill-rule:nonzero;stroke:none"
         id="path174" /><path
         d="m 10309.7,12370.6 c -38,-127.1 -135.2,-210.3 -217.2,-185.8 -81.9,24.5 -117.51,147.4 -79.5,274.5 38,127.1 135.2,210.2 217.1,185.7 82,-24.4 117.6,-147.3 79.6,-274.4"
         style="fill:#f2cfbb;fill-opacity:1;fill-rule:nonzero;stroke:none"
         id="path176" /><path
         d="m 10722.5,11829.1 c -132.6,-3 -238.5,-74.7 -236.6,-160.2 1.9,-85.5 111,-152.3 243.6,-149.3 132.6,3 238.5,74.7 236.6,160.2 -1.9,85.5 -111,152.3 -243.6,149.3"
         style="fill:#f2cfbb;fill-opacity:1;fill-rule:nonzero;stroke:none"
         id="path178" /><path
         d="m 10708.5,12292.6 c -94.6,-103 -225.2,-137.1 -291.6,-76.1 -66.4,61 -43.5,194 51.2,297 94.6,103 225.2,137.1 291.6,76 66.4,-61 43.5,-193.9 -51.2,-296.9"
         style="fill:#f2cfbb;fill-opacity:1;fill-rule:nonzero;stroke:none"
         id="path180" /><path
         d="m 10752.9,12234.4 c -124.4,-64 -191.8,-180.9 -150.6,-261 41.3,-80.2 175.6,-93.3 300,-29.4 124.4,64 191.7,180.9 150.5,261.1 -41.3,80.2 -175.6,93.3 -299.9,29.3"
         style="fill:#f2cfbb;fill-opacity:1;fill-rule:nonzero;stroke:none"
         id="path182" /><path
         d="m 11092.2,14585.7 c -9.2,-140.8 119.3,-185.4 227.2,-323.3 158.5,-202.3 313.9,-180.7 356,-69.5 42.1,111.2 -77.6,220.2 -63.8,343.8 0.1,0.4 0.1,0.7 0.1,1.1 0.1,0.4 0.1,0.8 0.1,1.2 9,124 146.7,209.3 125.6,326.3 -21,117 -170,166.6 -362.7,-3.3 -131.4,-115.8 -265.8,-136.2 -282.5,-276.3"
         style="fill:#f2cfbb;fill-opacity:1;fill-rule:nonzero;stroke:none"
         id="path184" /><path
         d="m 10956.8,14256.3 c 114,67.9 241.9,63.3 285.6,-10.2 43.8,-73.5 -13.2,-188 -127.2,-255.9 -113.9,-67.8 -241.8,-63.3 -285.5,10.2 -43.8,73.5 13.2,188 127.1,255.9"
         style="fill:#f2cfbb;fill-opacity:1;fill-rule:nonzero;stroke:none"
         id="path186" /><path
         d="m 11019.3,14934.3 c 99.7,-87.5 226.2,-106.4 282.7,-42.2 56.4,64.3 21.3,187.3 -78.3,274.9 -99.7,87.5 -226.2,106.4 -282.6,42.1 -56.5,-64.2 -21.4,-187.2 78.2,-274.8"
         style="fill:#f2cfbb;fill-opacity:1;fill-rule:nonzero;stroke:none"
         id="path188" /><path
         d="m 10716,14583.7 c 139.4,11.8 258.5,-51.5 266.1,-141.4 7.6,-89.9 -99.2,-172.2 -238.6,-184 -139.4,-11.8 -258.5,51.5 -266.1,141.3 -7.6,89.9 99.2,172.3 238.6,184.1"
         style="fill:#f2cfbb;fill-opacity:1;fill-rule:nonzero;stroke:none"
         id="path190" /><path
         d="m 10722.7,14656.5 c 134.9,-37.1 263.6,3.4 287.5,90.3 23.9,87 -66.1,187.5 -201,224.6 -134.9,37 -263.6,-3.4 -287.5,-90.4 -23.9,-86.9 66.1,-187.5 201,-224.5"
         style="fill:#f2cfbb;fill-opacity:1;fill-rule:nonzero;stroke:none"
         id="path192" /><path
         d="m 22756.8,9521.6 c 42.6,134.53 -71.5,208.51 -143.5,368.19 -105.6,234.21 -261.7,250.41 -329.1,152.51 -67.4,-97.97 22.9,-232.39 -20.1,-349.11 -0.1,-0.37 -0.3,-0.73 -0.4,-1.09 -0.1,-0.36 -0.2,-0.73 -0.3,-1.1 -38.4,-118.32 -192.4,-168.27 -199.9,-286.94 -7.5,-118.66 125.3,-202.38 353,-83.36 155.3,81.14 290.7,68.8 340.3,200.9"
         style="fill:#f2cfbb;fill-opacity:1;fill-rule:nonzero;stroke:none"
         id="path194" /><path
         d="m 22966.9,9809.18 c -126.9,-38.68 -250,-3.74 -274.9,78.06 -24.9,81.79 57.7,179.46 184.6,218.16 126.8,38.7 249.9,3.7 274.9,-78.1 24.9,-81.76 -57.7,-179.44 -184.6,-218.12"
         style="fill:#f2cfbb;fill-opacity:1;fill-rule:nonzero;stroke:none"
         id="path196" /><path
         d="m 22744.4,9165.68 c -75.9,108.8 -194.3,157.34 -264.4,108.41 -70.1,-48.91 -65.5,-176.77 10.4,-285.55 75.9,-108.8 194.3,-157.34 264.4,-108.42 70.1,48.92 65.5,176.76 -10.4,285.56"
         style="fill:#f2cfbb;fill-opacity:1;fill-rule:nonzero;stroke:none"
         id="path198" /><path
         d="m 23122.6,9433.78 c -138.1,21.83 -238.7,111.73 -224.7,200.8 14.1,89.07 137.5,143.59 275.7,121.77 138.2,-21.83 238.8,-111.73 224.7,-200.8 -14.1,-89.08 -137.5,-143.6 -275.7,-121.77"
         style="fill:#f2cfbb;fill-opacity:1;fill-rule:nonzero;stroke:none"
         id="path200" /><path
         d="m 23098.8,9364.7 c -122.2,68.18 -256.8,59.63 -300.8,-19.11 -43.9,-78.75 19.4,-197.86 141.6,-266.03 122.1,-68.18 256.8,-59.63 300.7,19.11 44,78.74 -19.4,197.85 -141.5,266.03"
         style="fill:#f2cfbb;fill-opacity:1;fill-rule:nonzero;stroke:none"
         id="path202" /><path
         d="m 17153.2,6651.9 c -72.4,-121.2 21.7,-219.4 55,-391.4 48.9,-252.2 197.1,-303.8 285.3,-224 88.1,79.8 31.1,231.4 99.7,335.1 0.3,0.3 0.5,0.7 0.7,1 0.2,0.3 0.4,0.6 0.6,1 64.5,106.3 225.9,119.5 260.4,233.3 34.6,113.8 -75.4,225.8 -324.4,162.3 -169.7,-43.3 -298.7,-0.2 -377.3,-117.3"
         style="fill:#f2cfbb;fill-opacity:1;fill-rule:nonzero;stroke:none"
         id="path204" /><path
         d="m 16882.6,6420.3 c 132.4,8.4 244.1,-53.9 249.6,-139.2 5.5,-85.3 -97.4,-161.4 -229.8,-169.9 -132.3,-8.5 -244.1,53.8 -249.5,139.2 -5.5,85.3 97.4,161.4 229.7,169.9"
         style="fill:#f2cfbb;fill-opacity:1;fill-rule:nonzero;stroke:none"
         id="path206" /><path
         d="m 17247.1,6995.4 c 48.8,-123.3 152.9,-197.8 232.4,-166.3 79.5,31.5 104.3,157 55.5,280.3 -48.9,123.3 -152.9,197.8 -232.4,166.3 -79.5,-31.5 -104.4,-157 -55.5,-280.3"
         style="fill:#f2cfbb;fill-opacity:1;fill-rule:nonzero;stroke:none"
         id="path208" /><path
         d="m 16817.3,6821.4 c 129.5,-53 206.7,-163.6 172.6,-247.1 -34.2,-83.4 -166.8,-108.1 -296.3,-55.1 -129.4,53 -206.7,163.6 -172.5,247.1 34.1,83.4 166.8,108.1 296.2,55.1"
         style="fill:#f2cfbb;fill-opacity:1;fill-rule:nonzero;stroke:none"
         id="path210" /><path
         d="m 16856.5,6883.2 c 103.2,-94.5 236.2,-117.1 297,-50.6 60.9,66.6 26.6,197 -76.6,291.5 -103.2,94.4 -236.2,117 -297.1,50.5 -60.8,-66.5 -26.5,-197 76.7,-291.4"
         style="fill:#f2cfbb;fill-opacity:1;fill-rule:nonzero;stroke:none"
         id="path212" /><path
         d="m 1820.2,15820.8 c -66.26,-124.6 32.56,-218.1 74.38,-388.1 61.36,-249.6 211.97,-293.8 296.02,-209.6 84.04,84.1 19.63,232.6 83.03,339.6 0.19,0.3 0.39,0.7 0.59,1 0.17,0.3 0.37,0.7 0.55,1 59.15,109.4 219.65,130.6 248.53,246 28.88,115.3 -86.52,221.7 -332.05,146 -167.35,-51.7 -298.31,-15 -371.05,-135.9"
         style="fill:#f2cfbb;fill-opacity:1;fill-rule:nonzero;stroke:none"
         id="path214" /><path
         d="m 1561.47,15576 c 131.79,15.1 246.49,-41.6 256.19,-126.6 9.69,-84.9 -89.28,-166 -221.06,-181 -131.79,-15.1 -246.48,41.6 -256.18,126.5 -9.71,85 89.27,166.1 221.05,181.1"
         style="fill:#f2cfbb;fill-opacity:1;fill-rule:nonzero;stroke:none"
         id="path216" /><path
         d="m 1896.94,16168.5 c 54.9,-120.7 162.52,-189.9 240.35,-154.5 77.85,35.4 96.44,162 41.54,282.7 -54.91,120.8 -162.53,189.9 -240.36,154.5 -77.84,-35.3 -96.44,-161.9 -41.53,-282.7"
         style="fill:#f2cfbb;fill-opacity:1;fill-rule:nonzero;stroke:none"
         id="path218" /><path
         d="m 1476.35,15973.4 c 131.93,-46.5 214.56,-153.1 184.58,-238.2 -29.98,-85 -161.23,-116.3 -293.16,-69.8 -131.93,46.5 -214.57,153.2 -184.58,238.3 29.98,85 161.23,116.2 293.16,69.7"
         style="fill:#f2cfbb;fill-opacity:1;fill-rule:nonzero;stroke:none"
         id="path220" /><path
         d="m 1512.36,16037 c 107.76,-89.1 241.73,-105.1 299.23,-35.7 57.5,69.5 16.76,198.1 -90.99,287.3 -107.77,89.2 -241.74,105.2 -299.24,35.7 -57.5,-69.4 -16.76,-198.1 91,-287.3"
         style="fill:#f2cfbb;fill-opacity:1;fill-rule:nonzero;stroke:none"
         id="path222" /><path
         d="m 1386.45,13087.3 c 96.05,-103.4 216.67,-40.5 391.07,-56.7 255.86,-23.6 346.91,104.2 294.93,211.2 -51.99,106.9 -213.43,94.6 -293.81,189.6 -0.25,0.3 -0.51,0.5 -0.75,0.8 -0.26,0.3 -0.52,0.6 -0.78,0.9 -84.05,91.7 -51.57,250.3 -151.12,315.3 -99.55,65 -237.85,-9.2 -246.57,-266 -5.94,-175.1 -83.44,-286.8 7.03,-395.1"
         style="fill:#f2cfbb;fill-opacity:1;fill-rule:nonzero;stroke:none"
         id="path224" /><path
         d="m 1533.08,12762.7 c 28.89,129.5 119.98,219.4 203.43,200.7 83.46,-18.6 127.69,-138.6 98.8,-268.1 -28.9,-129.5 -119.98,-219.3 -203.44,-200.7 -83.46,18.6 -127.69,138.7 -98.79,268.1"
         style="fill:#f2cfbb;fill-opacity:1;fill-rule:nonzero;stroke:none"
         id="path226" /><path
         d="m 1082.92,13273.6 c 132.07,12.4 232.65,91.4 224.67,176.6 -7.99,85.1 -121.52,144.1 -253.58,131.7 -132.069,-12.4 -232.655,-91.5 -224.67,-176.6 7.984,-85.1 121.515,-144.1 253.58,-131.7"
         style="fill:#f2cfbb;fill-opacity:1;fill-rule:nonzero;stroke:none"
         id="path228" /><path
         d="m 1129.68,12812.3 c 87.11,109.5 214.92,152.7 285.49,96.5 70.56,-56.1 57.14,-190.4 -29.97,-299.8 -87.1,-109.5 -214.92,-152.7 -285.48,-96.6 -70.56,56.2 -57.15,190.5 29.96,299.9"
         style="fill:#f2cfbb;fill-opacity:1;fill-rule:nonzero;stroke:none"
         id="path230" /><path
         d="m 1081.36,12867.2 c 119.53,72.6 178.47,194 131.64,271 -46.84,77.1 -181.71,80.7 -301.254,8 -119.527,-72.6 -178.469,-194 -131.633,-271.1 46.836,-77 181.707,-80.6 301.247,-7.9"
         style="fill:#f2cfbb;fill-opacity:1;fill-rule:nonzero;stroke:none"
         id="path232" /><path
         d="m 21489.4,14217.1 c 42.6,-134.5 178.5,-129.2 329.3,-218.3 221.3,-130.7 358.2,-54 356.9,64.9 -1.3,118.9 -152.5,176.8 -184.7,297 -0.1,0.3 -0.2,0.7 -0.3,1.1 -0.1,0.3 -0.2,0.7 -0.3,1.1 -36.8,118.8 60.3,248.3 -1.9,349.6 -62.3,101.4 -219,93.3 -336.6,-135.2 -80.2,-155.7 -198,-223.6 -162.4,-360.2"
         style="fill:#f2cfbb;fill-opacity:1;fill-rule:nonzero;stroke:none"
         id="path234" /><path
         d="m 21483.3,13861 c 81.4,104.7 202.1,147.1 269.6,94.6 67.5,-52.5 56.3,-180 -25.2,-284.7 -81.4,-104.7 -202.1,-147 -269.6,-94.5 -67.5,52.5 -56.2,179.9 25.2,284.6"
         style="fill:#f2cfbb;fill-opacity:1;fill-rule:nonzero;stroke:none"
         id="path236" /><path
         d="m 21294.5,14515.2 c 124.7,-45.2 249.4,-16.7 278.6,63.7 29.1,80.4 -48.3,182.2 -173,227.4 -124.7,45.3 -249.4,16.8 -278.6,-63.6 -29.1,-80.4 48.3,-182.3 173,-227.5"
         style="fill:#f2cfbb;fill-opacity:1;fill-rule:nonzero;stroke:none"
         id="path238" /><path
         d="m 21139.7,14078.2 c 125.5,61.7 259.6,46.2 299.4,-34.7 39.8,-80.9 -29.7,-196.6 -155.2,-258.3 -125.5,-61.8 -259.6,-46.3 -299.4,34.7 -39.8,80.9 29.7,196.5 155.2,258.3"
         style="fill:#f2cfbb;fill-opacity:1;fill-rule:nonzero;stroke:none"
         id="path240" /><path
         d="m 21119.5,14148.4 c 139.1,14.6 244.2,99.2 234.8,188.9 -9.4,89.6 -129.8,150.5 -269,135.9 -139.1,-14.6 -244.2,-99.2 -234.8,-188.9 9.4,-89.7 129.8,-150.5 269,-135.9"
         style="fill:#f2cfbb;fill-opacity:1;fill-rule:nonzero;stroke:none"
         id="path242" /><path
         d="m 16256,15680 c -86.9,-111.2 -5.7,-220.3 6.1,-395.1 17.2,-256.4 157.9,-326 255.2,-257.7 97.4,68.3 59.6,225.8 140.6,320.2 0.2,0.3 0.5,0.6 0.7,0.9 0.3,0.3 0.5,0.6 0.8,0.9 77.2,97.5 238.9,90.6 287.3,199.2 48.4,108.6 -46.8,233.4 -301.8,201.2 -173.7,-21.9 -296.4,36.9 -388.9,-69.6"
         style="fill:#f2cfbb;fill-opacity:1;fill-rule:nonzero;stroke:none"
         id="path244" /><path
         d="m 15958.8,15483.7 c 132.4,-7.9 235.5,-83.6 230.4,-169 -5.1,-85.3 -116.7,-148 -249.1,-140.1 -132.4,8 -235.5,83.7 -230.4,169.1 5.2,85.3 116.7,148 249.1,140"
         style="fill:#f2cfbb;fill-opacity:1;fill-rule:nonzero;stroke:none"
         id="path246" /><path
         d="m 16391.7,16009.3 c 33.2,-128.5 127.2,-215.2 210,-193.9 82.8,21.4 123,142.9 89.8,271.3 -33.2,128.4 -127.2,215.2 -210,193.8 -82.7,-21.4 -123,-142.8 -89.8,-271.2"
         style="fill:#f2cfbb;fill-opacity:1;fill-rule:nonzero;stroke:none"
         id="path248" /><path
         d="m 15943.7,15889.9 c 121.9,-68.6 184.8,-188 140.6,-266.6 -44.3,-78.5 -178.9,-86.6 -300.8,-18 -121.9,68.7 -184.8,188 -140.6,266.6 44.2,78.6 178.9,86.6 300.8,18"
         style="fill:#f2cfbb;fill-opacity:1;fill-rule:nonzero;stroke:none"
         id="path250" /><path
         d="m 15990.2,15946.3 c 90.7,-106.5 219.9,-145.4 288.5,-86.9 68.7,58.4 50.8,192.2 -39.9,298.7 -90.7,106.4 -219.9,145.4 -288.5,86.9 -68.7,-58.5 -50.8,-192.2 39.9,-298.7"
         style="fill:#f2cfbb;fill-opacity:1;fill-rule:nonzero;stroke:none"
         id="path252" /><path
         d="m 4376.61,1054.8 c -115.73,80.7 -220.35,-6.2 -394.21,-27.3 -255.09,-31 -317.06,-175.199 -243.65,-268.699 73.42,-93.5 228.61,-47.399 327.25,-123.199 0.3,-0.2 0.6,-0.5 0.91,-0.7 0.32,-0.203 0.63,-0.504 0.94,-0.699 101.53,-71.801 103.31,-233.703 214.35,-276.301 111.04,-42.5 230.52,59.297 184.77,312.2 -31.18,172.3 20.95,297.898 -90.36,384.698"
         style="fill:#f2cfbb;fill-opacity:1;fill-rule:nonzero;stroke:none"
         id="path254" /><path
         d="m 4164.71,1341 c -0.89,-132.7 -70.92,-239.7 -156.43,-239.1 -85.52,0.5 -154.12,108.5 -153.23,241.2 0.89,132.6 70.92,239.7 156.42,239.1 85.51,-0.6 154.12,-108.6 153.24,-241.2"
         style="fill:#f2cfbb;fill-opacity:1;fill-rule:nonzero;stroke:none"
         id="path256" /><path
         d="m 4712.66,936.801 c -126.47,-40 -208.08,-138.5 -182.28,-220 25.79,-81.602 149.22,-115.199 275.68,-75.199 126.47,40 208.08,138.5 182.28,220.101 -25.79,81.496 -149.23,115.098 -275.68,75.098"
         style="fill:#f2cfbb;fill-opacity:1;fill-rule:nonzero;stroke:none"
         id="path258" /><path
         d="m 4569.46,1377.8 c -62.01,-125.4 -177.8,-194.6 -258.64,-154.7 -80.83,40 -96.09,174.1 -34.08,299.5 62.01,125.3 177.81,194.6 258.65,154.6 80.83,-40 96.09,-174 34.07,-299.4"
         style="fill:#f2cfbb;fill-opacity:1;fill-rule:nonzero;stroke:none"
         id="path260" /><path
         d="m 4628.29,1334.4 c -101.48,-96.3 -133.45,-227.3 -71.38,-292.8 62.06,-65.401 194.64,-40.4 296.13,55.9 101.48,96.2 133.44,227.3 71.37,292.8 -62.06,65.4 -194.63,40.4 -296.12,-55.9"
         style="fill:#f2cfbb;fill-opacity:1;fill-rule:nonzero;stroke:none"
         id="path262" /><path
         d="m 3911.41,12425.5 c 138.72,-25.8 198.18,96.5 347.86,187.5 219.58,133.4 216.54,290.3 111.08,345.3 -105.46,54.9 -227.81,-51.1 -348.91,-22.8 -0.39,0.1 -0.76,0.2 -1.14,0.3 -0.37,0 -0.75,0.1 -1.13,0.2 -122.13,23.6 -190.53,170.3 -309.23,163.2 -118.69,-7.1 -185.54,-149.1 -39.55,-360.5 99.5,-144.2 103.84,-280.1 241.02,-313.2"
         style="fill:#f2cfbb;fill-opacity:1;fill-rule:nonzero;stroke:none"
         id="path264" /><path
         d="m 4222.52,12252.2 c -53.92,121.2 -34.29,247.6 43.85,282.4 78.12,34.7 185.16,-35.3 239.08,-156.5 53.91,-121.2 34.28,-247.7 -43.85,-282.4 -78.12,-34.8 -185.16,35.3 -239.08,156.5"
         style="fill:#f2cfbb;fill-opacity:1;fill-rule:nonzero;stroke:none"
         id="path266" /><path
         d="m 3556.63,12394.3 c 98.7,88.6 132.39,212.1 75.26,275.7 -57.13,63.6 -183.45,43.4 -282.14,-45.3 -98.7,-88.6 -132.4,-212 -75.26,-275.6 57.13,-63.7 183.45,-43.4 282.14,45.2"
         style="fill:#f2cfbb;fill-opacity:1;fill-rule:nonzero;stroke:none"
         id="path268" /><path
         d="m 3868.98,12051.7 c 4.77,139.8 81.69,250.6 171.82,247.6 90.13,-3.1 159.33,-118.9 154.56,-258.7 -4.75,-139.8 -81.68,-250.7 -171.81,-247.6 -90.12,3.1 -159.33,118.9 -154.57,258.7"
         style="fill:#f2cfbb;fill-opacity:1;fill-rule:nonzero;stroke:none"
         id="path270" /><path
         d="m 3797.5,12066.9 c 52.73,129.6 27.77,262.2 -55.76,296.2 -83.53,34 -193.99,-43.5 -246.71,-173 -52.74,-129.6 -27.76,-262.2 55.76,-296.2 83.53,-34 193.99,43.5 246.71,173"
         style="fill:#f2cfbb;fill-opacity:1;fill-rule:nonzero;stroke:none"
         id="path272" /><path
         d="m 1389.71,1566.6 c -134.59,-42.4 -129.6,-178.3 -219,-328.9 -131.16,-221 -54.75,-358.098 64.15,-357.001 118.89,1.004 177.1,152.101 297.32,184.001 0.37,0.1 0.74,0.2 1.12,0.3 0.37,0.1 0.74,0.2 1.1,0.3 118.89,36.6 248.22,-60.8 349.67,1.2 101.45,62 93.73,218.8 -134.48,336.9 -155.55,80.5 -223.24,198.4 -359.88,163.2"
         style="fill:#f2cfbb;fill-opacity:1;fill-rule:nonzero;stroke:none"
         id="path274" /><path
         d="m 1033.64,1573.4 c 104.53,-81.6 146.6,-202.5 93.96,-269.8 -52.64,-67.4 -180.057,-55.9 -284.58,25.8 -104.536,81.7 -146.602,202.5 -93.961,269.9 52.64,67.4 180.05,55.8 284.581,-25.9"
         style="fill:#f2cfbb;fill-opacity:1;fill-rule:nonzero;stroke:none"
         id="path276" /><path
         d="m 1688.23,1760.8 c -45.49,-124.6 -17.24,-249.4 63.08,-278.7 80.32,-29.3 182.31,47.9 227.81,172.5 45.48,124.6 17.24,249.4 -63.08,278.7 -80.33,29.3 -182.32,-47.9 -227.81,-172.5"
         style="fill:#f2cfbb;fill-opacity:1;fill-rule:nonzero;stroke:none"
         id="path278" /><path
         d="m 1251.53,1916.5 c 61.48,-125.6 45.65,-259.6 -35.35,-299.3 -81,-39.6 -196.51,30.1 -257.981,155.8 -61.484,125.6 -45.656,259.6 35.352,299.3 80.999,39.6 196.499,-30.1 257.979,-155.8"
         style="fill:#f2cfbb;fill-opacity:1;fill-rule:nonzero;stroke:none"
         id="path280" /><path
         d="m 1321.8,1936.6 c 14.33,-139.1 98.65,-244.4 188.36,-235.2 89.71,9.2 150.82,129.5 136.49,268.7 -14.32,139.1 -98.65,244.4 -188.35,235.2 -89.71,-9.2 -150.82,-129.5 -136.5,-268.7"
         style="fill:#f2cfbb;fill-opacity:1;fill-rule:nonzero;stroke:none"
         id="path282" /><path
         d="m 14240.6,1318.6 c -113.4,84.1 -220.4,0.2 -394.8,-15.9 -255.9,-23.5 -322,-165.9 -251.3,-261.5 70.7,-95.598 227.1,-54.001 323.5,-132.598 0.3,-0.301 0.6,-0.5 0.9,-0.7 0.3,-0.3 0.6,-0.5 0.9,-0.703 99.4,-74.797 96.6,-236.699 206.3,-282.398 109.8,-45.699 232.2,52.601 193.7,306.699 -26.2,173.2 29.6,297.2 -79.2,387.1"
         style="fill:#f2cfbb;fill-opacity:1;fill-rule:nonzero;stroke:none"
         id="path284" /><path
         d="m 14037,1610.8 c -4.7,-132.5 -77.8,-237.5 -163.2,-234.5 -85.5,3.1 -150.9,113 -146.2,245.5 4.7,132.6 77.8,237.6 163.2,234.6 85.5,-3.1 151,-113 146.2,-245.6"
         style="fill:#f2cfbb;fill-opacity:1;fill-rule:nonzero;stroke:none"
         id="path286" /><path
         d="m 14573.1,1191 c -127.6,-36.3 -212,-132.4 -188.5,-214.699 23.4,-82.199 145.8,-119.403 273.4,-83.102 127.5,36.403 211.9,132.501 188.5,214.701 -23.4,82.3 -145.8,119.5 -273.4,83.1"
         style="fill:#f2cfbb;fill-opacity:1;fill-rule:nonzero;stroke:none"
         id="path288" /><path
         d="m 14442.7,1636 c -65.6,-123.6 -183.4,-189.5 -263,-147.2 -79.6,42.3 -91,176.8 -25.4,300.3 65.6,123.6 183.3,189.4 263,147.1 79.6,-42.3 91,-176.7 25.4,-300.2"
         style="fill:#f2cfbb;fill-opacity:1;fill-rule:nonzero;stroke:none"
         id="path290" /><path
         d="m 14500.2,1590.9 c -104.2,-93.3 -139.9,-223.4 -79.8,-290.6 60.2,-67.2 193.4,-46 297.7,47.3 104.2,93.3 139.9,223.4 79.8,290.6 -60.2,67.2 -193.4,46 -297.7,-47.3"
         style="fill:#f2cfbb;fill-opacity:1;fill-rule:nonzero;stroke:none"
         id="path292" /><path
         d="m 22262.4,6737.3 c -48.5,132.4 -184,121.2 -338.6,203.6 -226.8,120.8 -360.2,38.2 -353.7,-80.5 6.6,-118.7 160.2,-169.9 197.5,-288.6 0.2,-0.3 0.3,-0.7 0.4,-1.1 0.1,-0.3 0.3,-0.7 0.4,-1.1 42,-117 -49.4,-250.7 17.3,-349.2 66.6,-98.5 222.8,-83.6 330.3,149.8 73.2,159.1 187.9,232.2 146.4,367.1"
         style="fill:#f2cfbb;fill-opacity:1;fill-rule:nonzero;stroke:none"
         id="path294" /><path
         d="m 22252.9,7093.3 c -76.8,-108.2 -195.5,-155.8 -265.3,-106.3 -69.7,49.5 -64,177.3 12.7,285.5 76.8,108.13 195.5,155.71 265.3,106.23 69.7,-49.53 64,-177.33 -12.7,-285.43"
         style="fill:#f2cfbb;fill-opacity:1;fill-rule:nonzero;stroke:none"
         id="path296" /><path
         d="m 22470.2,6448 c -126.6,39.7 -249.9,5.7 -275.5,-75.9 -25.6,-81.5 56.2,-179.9 182.8,-219.6 126.6,-39.7 249.9,-5.7 275.5,75.9 25.6,81.6 -56.2,179.9 -182.8,219.6"
         style="fill:#f2cfbb;fill-opacity:1;fill-rule:nonzero;stroke:none"
         id="path298" /><path
         d="m 22605.6,6891.4 c -122.7,-67.2 -257.2,-57.6 -300.5,21.5 -43.4,79.1 21,197.7 143.7,264.9 122.6,67.2 257.2,57.6 300.5,-21.5 43.4,-79.1 -21,-197.7 -143.7,-264.9"
         style="fill:#f2cfbb;fill-opacity:1;fill-rule:nonzero;stroke:none"
         id="path300" /><path
         d="m 22629,6822.1 c -138.4,-20.7 -239.7,-109.8 -226.3,-199 13.3,-89.1 136.3,-144.7 274.6,-123.9 138.4,20.7 239.7,109.8 226.3,198.9 -13.3,89.2 -136.3,144.7 -274.6,124"
         style="fill:#f2cfbb;fill-opacity:1;fill-rule:nonzero;stroke:none"
         id="path302" /><path
         d="m 5032.56,15604.2 c 63.78,-125.9 197.06,-98.8 360.23,-162.5 239.38,-93.3 362.2,4.4 341.75,121.5 -20.44,117.2 -178.98,150 -230.05,263.4 -0.15,0.3 -0.31,0.7 -0.48,1 -0.16,0.4 -0.34,0.7 -0.5,1.1 -55.47,111.3 19.53,254.8 -58.2,344.7 -77.72,90 -231.15,56.9 -310.43,-187.6 -54.03,-166.6 -159.38,-252.6 -102.32,-381.6"
         style="fill:#f2cfbb;fill-opacity:1;fill-rule:nonzero;stroke:none"
         id="path304" /><path
         d="m 5083.89,15251.8 c 63.5,116.4 175.86,177.6 250.92,136.7 75.07,-41 84.45,-168.6 20.93,-285 -63.51,-116.5 -175.86,-177.7 -250.93,-136.7 -75.07,40.9 -84.44,168.5 -20.92,285"
         style="fill:#f2cfbb;fill-opacity:1;fill-rule:nonzero;stroke:none"
         id="path306" /><path
         d="m 4792.26,15867 c 130.35,-24.6 248.85,23.7 264.68,107.7 15.83,84 -77,172.1 -207.35,196.6 -130.35,24.6 -248.86,-23.6 -264.69,-107.7 -15.83,-84 77,-172 207.36,-196.6"
         style="fill:#f2cfbb;fill-opacity:1;fill-rule:nonzero;stroke:none"
         id="path308" /><path
         d="m 4709.85,15410.8 c 113.95,81.1 248.72,87.3 301.03,13.9 52.32,-73.5 2.36,-198.8 -111.58,-279.9 -113.95,-81.2 -248.72,-87.4 -301.03,-14 -52.31,73.5 -2.36,198.8 111.58,280"
         style="fill:#f2cfbb;fill-opacity:1;fill-rule:nonzero;stroke:none"
         id="path310" /><path
         d="m 4678.54,15476.8 c 134.96,36.8 225.11,137.2 201.37,224.2 -23.74,87 -152.38,127.7 -287.33,90.9 -134.95,-36.9 -225.11,-137.2 -201.36,-224.2 23.73,-87 152.37,-127.7 287.32,-90.9"
         style="fill:#f2cfbb;fill-opacity:1;fill-rule:nonzero;stroke:none"
         id="path312" /><path
         d="m 8101.54,14269 c 0,0 -114.61,-47 -206.17,7 -114.64,67.6 -137.47,196.1 -84.16,289.1 52.69,91.8 167.25,130.7 253.06,151.8 116.64,28.8 268.94,36.1 352.06,31.3 37.36,-74.3 91.22,-217 111.13,-335.5 14.65,-87.1 24.51,-207.7 -38.88,-292.6 -64.12,-85.8 -191.09,-115.9 -298.68,-37.6 -85.95,62.6 -88.36,186.5 -88.36,186.5"
         style="fill:#f2cfbb;fill-opacity:1;fill-rule:nonzero;stroke:none"
         id="path314" /><path
         d="m 10454.6,1482 c 0,0 -73.9,99.4 -44.2,201.5 37.2,127.8 156,181.7 259.2,153 102.1,-28.3 168,-129.7 209.8,-207.6 56.7,-105.9 101.4,-251.7 117.4,-333.4 -62.9,-54.6 -187.8,-142.1 -297.6,-190.6 -80.9,-35.8 -195.3,-75.2 -293.1,-34.7 -99.1,40.9 -159.6,156.5 -110.3,280.1 39.3,98.7 158.8,131.7 158.8,131.7"
         style="fill:#f2cfbb;fill-opacity:1;fill-rule:nonzero;stroke:none"
         id="path316" /><path
         d="m 8154.23,3516.5 c 0,0 37.2,-118.2 -24.33,-204.9 -77.03,-108.5 -206.94,-120.5 -295.11,-59.5 -87.11,60.2 -116.19,177.6 -130.08,264.9 -18.89,118.6 -13.3,271 -1.6,353.4 77.25,31 223.93,72.7 343.66,82.6 88.08,7.3 209.06,7 288.27,-63.3 80.17,-71.1 99.46,-200.2 12.37,-300.8 -69.57,-80.4 -193.18,-72.4 -193.18,-72.4"
         style="fill:#f2cfbb;fill-opacity:1;fill-rule:nonzero;stroke:none"
         id="path318" /><path
         d="m 19509.2,5778.2 c 0,0 -81.2,93.5 -59.4,197.5 27.3,130.3 141.6,193.1 246.8,172.5 103.9,-20.5 177.4,-116.5 225,-191 64.7,-101.2 120.4,-243.2 142.5,-323.4 -58.4,-59.3 -176.3,-156 -282.1,-212.9 -77.9,-41.8 -188.9,-89.8 -289.6,-57 -101.9,33.2 -171.1,143.8 -131.4,270.8 31.7,101.5 148.2,143.5 148.2,143.5"
         style="fill:#f2cfbb;fill-opacity:1;fill-rule:nonzero;stroke:none"
         id="path320" /><path
         d="m 12856.5,16097.8 c 0,0 -103.1,68.8 -109.4,174.9 -8,132.8 85.7,223.6 192.6,231.3 105.7,7.7 201.9,-65.6 267.4,-124.9 89.1,-80.7 180.2,-202.9 222.7,-274.5 -40.8,-72.6 -129,-196.9 -216.1,-279.7 -64.1,-60.8 -158.6,-136.4 -264.3,-131.3 -107.1,5.2 -203,93.7 -198.1,226.7 3.8,106.3 105.2,177.5 105.2,177.5"
         style="fill:#f2cfbb;fill-opacity:1;fill-rule:nonzero;stroke:none"
         id="path322" /><path
         d="m 4837.23,5583.6 c 0,0 21.5,122 116.07,170.5 118.42,60.8 239.2,11.5 289.31,-83.2 49.53,-93.6 21.16,-211.2 -6.77,-295.1 -37.97,-114 -113.21,-246.6 -161.61,-314.3 -82.84,8.1 -232.21,38.8 -343,85.3 -81.51,34.1 -188.71,90.2 -226.57,189.1 -38.33,100.1 4.08,223.5 127.77,272.6 98.82,39.2 204.8,-24.9 204.8,-24.9"
         style="fill:#f2cfbb;fill-opacity:1;fill-rule:nonzero;stroke:none"
         id="path324" /><path
         d="m 13249.9,5815.6 c 0,0 116.5,42 205.7,-16 111.5,-72.6 128.8,-201.9 71.4,-292.4 -56.6,-89.5 -172.7,-123.3 -259.4,-140.8 -117.8,-23.6 -270.3,-24.2 -353.1,-15.9 -34.1,76 -81.7,220.8 -96.4,340.1 -10.8,87.7 -15.4,208.6 51.6,290.6 67.8,83 196,107.4 300,24.5 83.2,-66.3 80.2,-190.1 80.2,-190.1"
         style="fill:#f2cfbb;fill-opacity:1;fill-rule:nonzero;stroke:none"
         id="path326" /><path
         d="m 21674.7,3817.2 c 0,0 23.6,-121.6 -47.3,-200.8 -88.8,-99.2 -219.3,-96.4 -300,-25.9 -79.7,69.7 -95.3,189.6 -99.3,277.9 -5.4,120.1 17.4,270.8 38.3,351.4 80.3,22.1 230.8,46.9 350.8,43.2 88.4,-2.7 208.5,-16.7 279.3,-95.5 71.6,-79.7 76.2,-210.1 -21.7,-300.3 -78.2,-72 -200.1,-50 -200.1,-50"
         style="fill:#f2cfbb;fill-opacity:1;fill-rule:nonzero;stroke:none"
         id="path328" /><path
         d="m 22369.9,1655.4 c 0,0 106.1,63.8 204.8,24.3 123.6,-49.5 165.7,-173 127,-272.9 -38.1,-98.8 -145.4,-154.6 -227,-188.5 -111,-46.2 -260.4,-76.4 -343.3,-84.4 -48.2,67.9 -123.1,200.7 -160.7,314.8 -27.7,84 -55.7,201.6 -6,295.1 50.4,94.6 171.4,143.6 289.6,82.5 94.4,-48.8 115.6,-170.9 115.6,-170.9"
         style="fill:#f2cfbb;fill-opacity:1;fill-rule:nonzero;stroke:none"
         id="path330" /><path
         d="m 10574.3,4721.6 c 0,0 44.7,115.5 146.9,144.8 127.9,36.7 236.9,-35 267.7,-137.6 30.5,-101.5 -20.1,-211.3 -63.7,-288.2 -59.3,-104.5 -158.8,-220.1 -219.4,-277.1 -79.7,24 -220.3,82.9 -320,150 -73.4,49.3 -167.7,125 -185.7,229.4 -18.3,105.6 47.2,218.4 178.1,242.7 104.5,19.4 196.1,-64 196.1,-64"
         style="fill:#f2cfbb;fill-opacity:1;fill-rule:nonzero;stroke:none"
         id="path332" /><path
         d="m 5568.51,2921.3 c 0,0 -62.44,107 -21.63,205.2 51.1,122.9 175.14,163.3 274.6,123.4 98.3,-39.5 152.63,-147.5 185.5,-229.6 44.67,-111.5 72.96,-261.4 79.79,-344.3 -68.49,-47.3 -202.3,-120.4 -316.88,-156.6 -84.28,-26.6 -202.33,-53.1 -295.13,-2 -93.93,51.6 -141.29,173.2 -78.64,290.6 50.05,93.8 172.39,113.3 172.39,113.3"
         style="fill:#f2cfbb;fill-opacity:1;fill-rule:nonzero;stroke:none"
         id="path334" /><path
         d="m 13873.1,13425.6 c 0,0 119.7,32.2 203.7,-32.9 105.2,-81.6 111.7,-211.9 47.1,-297.4 -63.8,-84.5 -182.4,-108.6 -270.2,-118.8 -119.3,-13.9 -271.3,-1.9 -353.2,13.2 -27.7,78.5 -63.1,226.8 -68,346.9 -3.5,88.3 1.9,209.1 75.4,285.3 74.4,77.1 204.2,91 301.1,-0.3 77.3,-72.9 64.1,-196 64.1,-196"
         style="fill:#f2cfbb;fill-opacity:1;fill-rule:nonzero;stroke:none"
         id="path336" /><path
         d="m 8823.23,16563.6 c 0,0 66.16,104.7 172.07,113.8 132.63,11.3 225.7,-80.1 236.14,-186.8 10.33,-105.4 -60.52,-203.4 -118.16,-270.4 -78.36,-91.1 -198.28,-185.3 -268.74,-229.6 -73.57,39 -200.16,124 -285.05,209 -62.46,62.5 -140.39,155.1 -137.92,260.9 2.49,107.2 88.53,205.3 221.6,203.8 106.32,-1.2 180.06,-100.7 180.06,-100.7"
         style="fill:#f2cfbb;fill-opacity:1;fill-rule:nonzero;stroke:none"
         id="path338" /><path
         d="m 12866.6,10311.1 c 0,0 84.7,-90.4 66.8,-195.2 -22.3,-131.16 -134.2,-198.26 -240.1,-181.55 -104.6,16.5 -181.7,109.75 -232,182.35 -68.5,98.7 -129.5,238.5 -154.7,317.8 56.2,61.4 170.3,162.6 274,223.4 76.2,44.7 185.3,96.9 287.2,67.9 103,-29.4 176.4,-137.3 141.5,-265.7 -27.9,-102.7 -142.7,-149 -142.7,-149"
         style="fill:#f2cfbb;fill-opacity:1;fill-rule:nonzero;stroke:none"
         id="path340" /><path
         d="m 12693.2,3012.6 c 0,0 -86.1,89.1 -69.7,194.1 20.4,131.6 131.3,200.3 237.4,185.2 104.8,-15 183.3,-107.1 234.7,-178.9 69.9,-97.8 133,-236.6 159.3,-315.5 -55.3,-62.3 -167.9,-165.1 -270.6,-227.4 -75.5,-45.9 -183.9,-99.6 -286.2,-72.1 -103.5,27.8 -178.4,134.6 -145.4,263.6 26.3,103 140.5,151 140.5,151"
         style="fill:#f2cfbb;fill-opacity:1;fill-rule:nonzero;stroke:none"
         id="path342" /><path
         d="m 20952.7,11322.1 c 0,0 114.2,-48.1 140.5,-151.1 33,-129 -42,-235.8 -145.5,-263.6 -102.2,-27.5 -210.6,26.3 -286.1,72.2 -102.7,62.3 -215.3,165.2 -270.6,227.4 26.3,79 89.4,217.8 159.4,315.5 51.4,71.9 129.9,163.9 234.7,178.9 106.1,15.1 217,-53.7 237.4,-185.2 16.3,-105.1 -69.8,-194.1 -69.8,-194.1"
         style="fill:#f2cfbb;fill-opacity:1;fill-rule:nonzero;stroke:none"
         id="path344" /><path
         d="m 16888.4,1674.9 c 0,0 115.4,44.9 206,-10.7 113.4,-69.6 134,-198.4 79.1,-290.5 -54.3,-90.9 -169.5,-127.7 -255.7,-147.4 -117.1,-26.7 -269.5,-31.3 -352.5,-25.1 -36.1,75 -87.4,218.6 -105.3,337.4 -13.1,87.4 -20.8,208.1 44,291.9 65.6,84.7 193.1,112.5 299.3,32.3 84.9,-64.1 85.1,-187.9 85.1,-187.9"
         style="fill:#f2cfbb;fill-opacity:1;fill-rule:nonzero;stroke:none"
         id="path346" /><path
         d="m 6428.02,7852.47 c 0,0 -123.43,-10.55 -194.63,68.39 -89.15,98.85 -72.51,228.24 6.18,301 77.76,71.9 198.69,74.67 286.9,69.21 119.92,-7.43 267.42,-46.1 345.3,-75.48 13.41,-82.15 22.11,-234.39 5.65,-353.4 -12.1,-87.55 -38.76,-205.55 -124.63,-267.53 -86.87,-62.76 -217.02,-53.44 -296.25,53.48 -63.3,85.43 -28.52,204.33 -28.52,204.33"
         style="fill:#f2cfbb;fill-opacity:1;fill-rule:nonzero;stroke:none"
         id="path348" /><path
         d="m 20046.7,16099.4 c 0,0 70.5,-101.8 37.4,-202.9 -41.4,-126.5 -162,-176.4 -264.2,-144.3 -101.1,31.7 -163.6,135.3 -202.7,214.5 -53.2,107.7 -93,255 -106.3,337.1 64.7,52.5 192.4,135.8 303.8,180.7 82,33 197.7,68.6 294.1,24.9 97.7,-44.2 154.3,-161.7 100.9,-283.6 -42.6,-97.4 -163,-126.4 -163,-126.4"
         style="fill:#f2cfbb;fill-opacity:1;fill-rule:nonzero;stroke:none"
         id="path350" /><path
         d="m 1335.4,4657.3 c 0,0 -92.98,81.8 -85.2,187.9 9.75,132.7 114.72,210.2 221.69,203.6 105.72,-6.4 191.35,-91.8 248.41,-159.3 77.56,-91.8 151.63,-225.1 184.27,-301.6 -50.08,-66.5 -154.02,-178.1 -251.36,-248.5 -71.61,-51.8 -175.29,-114.2 -279.44,-95 -105.4,19.4 -188.67,119.8 -166.24,251 17.94,104.8 127.87,161.9 127.87,161.9"
         style="fill:#f2cfbb;fill-opacity:1;fill-rule:nonzero;stroke:none"
         id="path352" /><path
         d="m 24872.5,1162.3 c 0,0 115.1,-45.8 143.4,-148.3 35.5,-128.301 -37.3,-236.5 -140.2,-266.398 -101.7,-29.5 -211.1,22.199 -287.5,66.5 -104,60.398 -218.5,160.898 -275,222.098 24.7,79.4 85.1,219.5 153.1,318.5 50,72.9 126.6,166.5 231.2,183.5 105.7,17.2 218,-49.4 241,-180.4 18.3,-104.8 -66,-195.5 -66,-195.5"
         style="fill:#f2cfbb;fill-opacity:1;fill-rule:nonzero;stroke:none"
         id="path354" /><path
         d="m 24798.3,12423.7 c 0,0 -123,14.8 -176.6,106.6 -67.2,114.9 -24.5,238.2 67.3,293.4 90.8,54.6 209.8,32.6 295,9.3 115.9,-31.7 252.4,-99.6 322.7,-144.2 -3.6,-83.2 -26.1,-234 -66.5,-347.1 -29.6,-83.3 -79.8,-193.4 -176.5,-236.6 -97.8,-43.7 -223.3,-8.1 -279.1,112.7 -44.6,96.6 13.7,205.9 13.7,205.9"
         style="fill:#f2cfbb;fill-opacity:1;fill-rule:nonzero;stroke:none"
         id="path356" /><path
         d="m 24220.8,5509.8 c 0,0 -96,78.4 -92.1,184.6 4.8,133 106.8,214.3 214,211.8 105.9,-2.5 194.6,-84.8 254.1,-150.1 80.9,-88.8 159.9,-219.3 195.3,-294.6 -47.5,-68.3 -147.3,-183.6 -242,-257.6 -69.6,-54.4 -170.9,-120.6 -275.7,-105.3 -106,15.5 -193,112.8 -175.4,244.7 14,105.4 121.8,166.5 121.8,166.5"
         style="fill:#f2cfbb;fill-opacity:1;fill-rule:nonzero;stroke:none"
         id="path358" /><path
         d="m 1602.92,10263.2 c 0,0 8.64,123.6 97.62,181.7 111.43,72.8 236.71,36.4 296.43,-52.6 59.04,-87.9 43.1,-207.8 24.08,-294.1 -25.86,-117.38 -86.84,-257.13 -127.9,-329.54 -83.24,-0.55 -235,14.36 -350.03,48.99 -84.64,25.47 -197.1,70.05 -245.09,164.45 -48.57,95.5 -19.27,222.7 98.61,284.4 94.18,49.4 206.28,-3.3 206.28,-3.3"
         style="fill:#f2cfbb;fill-opacity:1;fill-rule:nonzero;stroke:none"
         id="path360" /><path
         d="m 5268.27,10313.8 c 0,0 -85.82,89.3 -69.23,194.3 20.79,131.5 131.87,199.9 237.92,184.5 104.81,-15.3 183.02,-107.5 234.24,-179.6 69.63,-97.9 132.34,-236.9 158.46,-315.9 -55.44,-62.1 -168.33,-164.6 -271.21,-226.64 -75.68,-45.65 -184.19,-99.12 -286.38,-71.35 -103.43,28.1 -178.03,135.19 -144.73,263.99 26.62,102.9 140.93,150.7 140.93,150.7"
         style="fill:#f2cfbb;fill-opacity:1;fill-rule:nonzero;stroke:none"
         id="path362" /><path
         d="m 8276.47,6048.6 c 0,0 45.25,-115.3 -10.17,-206 -69.39,-113.6 -198.17,-134.5 -290.3,-79.7 -91.07,54 -128.15,169.2 -148.01,255.3 -26.99,117.1 -31.91,269.5 -25.9,352.5 74.95,36.2 218.41,87.9 337.18,106 87.37,13.3 208.07,21.3 291.94,-43.4 84.87,-65.4 112.99,-192.8 33.03,-299.2 -63.89,-85 -187.77,-85.5 -187.77,-85.5"
         style="fill:#f2cfbb;fill-opacity:1;fill-rule:nonzero;stroke:none"
         id="path364" /><path
         d="m 19887.5,1267.6 c 0,0 50.5,-113.1 -0.7,-206.3 -64.1,-116.601 -191.8,-143.398 -286.4,-92.999 -93.4,49.899 -135.7,163.199 -159.6,248.299 -32.3,115.7 -44.2,267.7 -42,350.9 73.2,39.7 214.1,97.9 331.9,121.4 86.7,17.3 206.9,30.9 293.6,-29.8 87.8,-61.5 121.8,-187.5 46.8,-297.4 -59.9,-87.9 -183.6,-94.1 -183.6,-94.1"
         style="fill:#f2cfbb;fill-opacity:1;fill-rule:nonzero;stroke:none"
         id="path366" /><path
         d="m 7642.17,1024.4 c 0,0 -103.5,-67.998 -203.7,-32.502 C 7313,1036.3 7266,1158 7300.53,1259.5 c 34.12,100.2 139.12,160.3 219.28,197.5 108.98,50.6 257.08,86.8 339.57,98.1 50.91,-65.9 131.09,-195.5 173.31,-308 31.06,-82.8 63.83,-199.2 17.86,-294.6 -46.51,-96.598 -165.37,-150.398 -285.97,-94.098 -96.35,44.899 -122.41,165.998 -122.41,165.998"
         style="fill:#f2cfbb;fill-opacity:1;fill-rule:nonzero;stroke:none"
         id="path368" /><path
         d="m 1427.11,7321.9 c 0,0 114.01,48.45 206.24,-4.4 115.49,-66.2 139.95,-194.3 87.81,-288 -51.52,-92.5 -165.57,-132.8 -251.11,-155.1 -116.27,-30.2 -268.48,-39.4 -351.63,-35.7 -38.31,73.9 -93.97,215.9 -115.38,334.1 -15.739,87 -27.134,207.4 35.17,293.03 63.04,86.66 189.62,118.32 298.19,41.38 86.74,-61.5 90.71,-185.31 90.71,-185.31"
         style="fill:#f2cfbb;fill-opacity:1;fill-rule:nonzero;stroke:none"
         id="path370" /><path
         d="m 18502.5,13749.9 c 0,0 121.7,23.1 200.6,-48.2 98.8,-89.3 95.4,-219.7 24.5,-300.1 -70,-79.4 -190.1,-94.5 -278.4,-98 -120,-4.8 -270.7,18.6 -351.2,39.9 -21.7,80.4 -45.8,230.9 -41.6,351 3.2,88.3 17.7,208.4 96.8,278.8 80,71.3 210.5,75.3 300.1,-23 71.7,-78.6 49.2,-200.4 49.2,-200.4"
         style="fill:#f2cfbb;fill-opacity:1;fill-rule:nonzero;stroke:none"
         id="path372" /></g></g></svg>
